<?xml version="1.0" encoding="utf-8"?>
<!-- Generator: Adobe Illustrator 23.0.1, SVG Export Plug-In . SVG Version: 6.00 Build 0)  -->
<svg version="1.1" id="Layer_1" xmlns="http://www.w3.org/2000/svg" xmlns:xlink="http://www.w3.org/1999/xlink" x="0px" y="0px"
	 viewBox="0 0 1366 768" style="enable-background:new 0 0 1366 768;" xml:space="preserve">
<style type="text/css">
	.st0{fill:#EE3938;}
	.st1{fill:#F1C6C0;}
	.st2{fill:none;stroke:#FFFFFF;stroke-width:0.5392;}
	.st3{fill:#A6A8AB;}
	.st4{fill:#5E6264;}
	.st5{fill:#C9C9CB;}
	.st6{fill:#B57972;}
	.st7{fill:#FFFFFF;}
	.st8{fill:#919291;}
	.st9{fill:none;stroke:#000000;stroke-miterlimit:10;}
	.st10{fill:none;}
	.st11{font-family:'WorkSans-Regular';}
	.st12{font-size:16px;}
	.st13{letter-spacing:16;}
	.st14{font-size:12px;}
	.st15{enable-background:new    ;}
	.st16{fill:#231F20;}
	.st17{font-size:10px;}
	.st18{font-family:'LotaGrotesque-Light';}
	.st19{font-size:13.2766px;}
	.st20{font-family:'WorkSans-SemiBold';}
	.st21{font-size:14.2979px;}
</style>
<rect x="346.92" y="60.07" class="st0" width="43.89" height="52.66"/>
<rect x="394.57" y="60.07" class="st1" width="282.14" height="52.66"/>
<rect x="394.57" y="60.07" class="st2" width="282.14" height="52.66"/>
<rect x="346.92" y="115.51" class="st3" width="236.39" height="140.72"/>
<rect x="346.92" y="115.51" class="st2" width="236.39" height="140.72"/>
<rect x="346.92" y="257.16" class="st3" width="46.28" height="53.56"/>
<rect x="346.92" y="257.16" class="st2" width="46.28" height="53.56"/>
<rect x="394.45" y="257.16" class="st3" width="141.34" height="53.56"/>
<rect x="394.45" y="257.16" class="st2" width="141.34" height="53.56"/>
<rect x="537.04" y="257.16" class="st3" width="46.28" height="53.56"/>
<rect x="537.04" y="257.16" class="st2" width="46.28" height="53.56"/>
<rect x="587.08" y="115.51" width="89.63" height="138.95"/>
<rect x="587.08" y="255.38" width="89.63" height="27.05"/>
<rect x="587.08" y="285.21" class="st4" width="89.63" height="25.5"/>
<rect x="587.08" y="285.21" class="st2" width="89.63" height="25.5"/>
<rect x="346.92" y="315.35" width="79.85" height="30.26"/>
<rect x="346.92" y="346.54" width="79.85" height="30.26"/>
<rect x="428.02" y="315.35" width="79.85" height="61.46"/>
<rect x="509.12" y="315.35" width="39.3" height="61.46"/>
<rect x="346.92" y="379.59" class="st1" width="49.43" height="48.61"/>
<rect x="346.92" y="379.59" class="st2" width="49.43" height="48.61"/>
<rect x="397.61" y="379.59" class="st1" width="100.12" height="48.61"/>
<rect x="397.61" y="379.59" class="st2" width="100.12" height="48.61"/>
<rect x="498.98" y="379.59" class="st1" width="49.44" height="48.61"/>
<rect x="498.98" y="379.59" class="st2" width="49.44" height="48.61"/>
<rect x="346.92" y="430.98" class="st3" width="85.64" height="28.43"/>
<rect x="346.92" y="430.98" class="st2" width="85.64" height="28.43"/>
<rect x="346.92" y="460.34" class="st3" width="85.64" height="57.79"/>
<rect x="346.92" y="460.34" class="st2" width="85.64" height="57.79"/>
<rect x="433.81" y="430.98" class="st3" width="114.61" height="65.13"/>
<rect x="433.81" y="430.98" class="st2" width="114.61" height="65.13"/>
<rect x="433.81" y="497.03" class="st3" width="114.61" height="21.09"/>
<rect x="433.81" y="497.03" class="st2" width="114.61" height="21.09"/>
<rect x="552.18" y="315.35" class="st4" width="40.67" height="121.02"/>
<rect x="552.18" y="315.35" class="st2" width="40.67" height="121.02"/>
<rect x="594.11" y="315.35" class="st4" width="82.6" height="121.02"/>
<rect x="594.11" y="315.35" class="st2" width="82.6" height="121.02"/>
<rect x="552.18" y="437.29" class="st4" width="61.64" height="39.72"/>
<rect x="552.18" y="437.29" class="st2" width="61.64" height="39.72"/>
<rect x="615.07" y="437.29" class="st4" width="61.64" height="39.72"/>
<rect x="615.07" y="437.29" class="st2" width="61.64" height="39.72"/>
<rect x="552.18" y="479.8" class="st5" width="60.38" height="38.33"/>
<rect x="552.18" y="479.8" class="st2" width="60.38" height="38.33"/>
<rect x="616.33" y="479.8" class="st0" width="60.38" height="38.33"/>
<rect x="682.98" y="60.07" class="st6" width="68.04" height="34.04"/>
<rect x="682.98" y="60.07" class="st2" width="68.04" height="34.04"/>
<rect x="754.78" y="60.07" width="69.71" height="34.04"/>
<rect x="825.74" y="60.07" width="69.71" height="34.04"/>
<rect x="896.71" y="60.07" width="69.71" height="34.04"/>
<rect x="682.98" y="96.89" class="st3" width="150.09" height="101.43"/>
<rect x="682.98" y="96.89" class="st2" width="150.09" height="101.43"/>
<rect x="682.98" y="199.24" class="st3" width="150.09" height="101.43"/>
<rect x="682.98" y="199.24" class="st2" width="150.09" height="101.43"/>
<rect x="682.98" y="301.6" class="st3" width="150.09" height="50.25"/>
<rect x="682.98" y="301.6" class="st2" width="150.09" height="50.25"/>
<rect x="836.83" y="96.89" class="st4" width="20.55" height="117.17"/>
<rect x="836.83" y="96.89" class="st2" width="20.55" height="117.17"/>
<rect x="858.64" y="96.89" class="st4" width="107.77" height="117.17"/>
<rect x="858.64" y="96.89" class="st2" width="107.77" height="117.17"/>
<rect x="836.83" y="214.99" class="st4" width="54.82" height="136.86"/>
<rect x="836.83" y="214.99" class="st2" width="54.82" height="136.86"/>
<rect x="892.91" y="214.99" class="st4" width="73.51" height="136.86"/>
<rect x="892.91" y="214.99" class="st2" width="73.51" height="136.86"/>
<rect x="682.98" y="354.63" class="st1" width="46.19" height="52.45"/>
<rect x="682.98" y="354.63" class="st2" width="46.19" height="52.45"/>
<rect x="730.43" y="354.63" class="st1" width="93.64" height="52.45"/>
<rect x="730.43" y="354.63" class="st2" width="93.64" height="52.45"/>
<rect x="825.32" y="354.63" class="st1" width="46.19" height="52.45"/>
<rect x="825.32" y="354.63" class="st2" width="46.19" height="52.45"/>
<rect x="872.77" y="354.63" class="st1" width="93.64" height="52.45"/>
<rect x="872.77" y="354.63" class="st2" width="93.64" height="52.45"/>
<rect x="682.98" y="411.72" class="st4" width="39.88" height="59.61"/>
<rect x="682.98" y="411.72" class="st2" width="39.88" height="59.61"/>
<rect x="724.11" y="411.72" class="st4" width="122.15" height="59.61"/>
<rect x="724.11" y="411.72" class="st2" width="122.15" height="59.61"/>
<rect x="682.98" y="474.11" class="st1" width="108.44" height="44.02"/>
<rect x="682.98" y="474.11" class="st2" width="108.44" height="44.02"/>
<rect x="792.67" y="474.11" class="st1" width="53.59" height="44.02"/>
<rect x="792.67" y="474.11" class="st2" width="53.59" height="44.02"/>
<rect x="850.02" y="411.72" class="st3" width="43.96" height="51.81"/>
<rect x="850.02" y="411.72" class="st2" width="43.96" height="51.81"/>
<rect x="850.02" y="466.31" width="43.96" height="51.81"/>
<rect x="900.26" y="411.72" class="st1" width="66.16" height="70.01"/>
<rect x="900.26" y="411.72" class="st2" width="66.16" height="70.01"/>
<rect x="900.26" y="484.51" class="st4" width="66.16" height="33.62"/>
<rect x="900.26" y="484.51" class="st2" width="66.16" height="33.62"/>
<rect x="344.77" y="308.83" class="st7" width="338.21" height="7.97"/>
<rect x="677.15" y="405.37" class="st7" width="289.26" height="7.97"/>
<rect x="675.81" y="54.47" class="st7" width="7.97" height="464.26"/>
<rect x="892.4" y="405.56" class="st7" width="7.97" height="113.17"/>
<path class="st4" d="M353.7,651.2h-0.45c-3.41,0-6.18-2.77-6.18-6.18s2.77-6.18,6.18-6.18h0.45c3.41,0,6.17,2.77,6.17,6.18
	S357.11,651.2,353.7,651.2"/>
<path class="st0" d="M682.2,651.2h-0.45c-3.41,0-6.18-2.76-6.18-6.18c0-3.41,2.77-6.17,6.18-6.17h0.45c3.41,0,6.17,2.76,6.17,6.17
	C688.38,648.43,685.61,651.2,682.2,651.2"/>
<path d="M353.7,629.85h-0.45c-3.41,0-6.18-2.76-6.18-6.18c0-3.41,2.77-6.17,6.18-6.17h0.45c3.41,0,6.17,2.76,6.17,6.17
	C359.88,627.09,357.11,629.85,353.7,629.85"/>
<path class="st8" d="M353.7,675.3h-0.45c-3.41,0-6.18-2.76-6.18-6.17c0-3.41,2.77-6.18,6.18-6.18h0.45c3.41,0,6.17,2.76,6.17,6.18
	C359.88,672.53,357.11,675.3,353.7,675.3"/>
<path class="st5" d="M353.7,698.97h-0.45c-3.41,0-6.18-2.76-6.18-6.18c0-3.41,2.77-6.18,6.18-6.18h0.45c3.41,0,6.17,2.77,6.17,6.18
	C359.88,696.2,357.11,698.97,353.7,698.97"/>
<g>
	<path class="st1" d="M682.2,629.85h-0.45c-3.41,0-6.18-2.76-6.18-6.17c0-3.41,2.77-6.18,6.18-6.18h0.45c3.41,0,6.17,2.77,6.17,6.18
		C688.38,627.09,685.61,629.85,682.2,629.85"/>
</g>
<g>
	<path class="st6" d="M682.2,675.3h-0.45c-3.41,0-6.18-2.76-6.18-6.18c0-3.41,2.77-6.17,6.18-6.17h0.45c3.41,0,6.17,2.76,6.17,6.17
		C688.38,672.53,685.61,675.3,682.2,675.3"/>
</g>
<g>
	<line class="st9" x1="345.78" y1="599.35" x2="405.5" y2="599.35"/>
</g>
<rect x="346.74" y="615.49" class="st10" width="281.26" height="103"/>
<text transform="matrix(1 0 0 1 346.7441 627.1671)"><tspan x="0" y="0" class="st11 st12 st13">	</tspan><tspan x="22.06" y="0" class="st11 st12">App</tspan><tspan x="52.78" y="0" class="st11 st12">r</tspan><tspan x="59.07" y="0" class="st11 st12">opri</tspan><tspan x="89.66" y="0" class="st11 st12">a</tspan><tspan x="98.41" y="0" class="st11 st12">ting d</tspan><tspan x="143.59" y="0" class="st11 st12">a</tspan><tspan x="152.33" y="0" class="st11 st12">ta</tspan><tspan x="0" y="24" class="st11 st12 st13">	</tspan><tspan x="22.06" y="24" class="st11 st12">Own research</tspan><tspan x="0" y="48" class="st11 st12 st13">	</tspan><tspan x="22.06" y="48" class="st11 st12">Existing data</tspan><tspan x="0" y="72" class="st11 st12 st13">	</tspan><tspan x="22.06" y="72" class="st11 st12">Collabo</tspan><tspan x="81.42" y="72" class="st11 st12">r</tspan><tspan x="87.74" y="72" class="st11 st12">a</tspan><tspan x="96.47" y="72" class="st11 st12">tion</tspan><tspan x="127.06" y="72" class="st11 st12"> </tspan><tspan x="132.17" y="72" class="st11 st12">with o</tspan><tspan x="181.91" y="72" class="st11 st12">r</tspan><tspan x="188.04" y="72" class="st11 st12">ganis</tspan><tspan x="228.47" y="72" class="st11 st12">a</tspan><tspan x="237.22" y="72" class="st11 st12">tions </tspan></text>
<g>
	<g>
		<g>
			<g>
				<text transform="matrix(1 0 0 1 348.6758 93.1406)" class="st7 st11 st14">Report</text>
			</g>
		</g>
	</g>
	<g class="st15">
		<g>
			<text transform="matrix(1 0 0 1 508.1445 93.1406)"><tspan x="0" y="0" class="st16 st11 st14">M</tspan><tspan x="10.15" y="0" class="st16 st11 st14">onitoring</tspan></text>
		</g>
	</g>
	<g class="st15">
		<g>
			<text transform="matrix(1 0 0 1 441.0674 192.6123)"><tspan x="0" y="0" class="st16 st11 st14">M</tspan><tspan x="10.15" y="0" class="st16 st11 st14">onitoring</tspan></text>
		</g>
	</g>
	<g>
		<g>
			<g>
				<text transform="matrix(1 0 0 1 351.166 281.6621)"><tspan x="0" y="0" class="st16 st11 st17">Memory</tspan><tspan x="0" y="12" class="st16 st11 st17">doc. </tspan></text>
			</g>
		</g>
	</g>
	<g class="st15">
		<g>
			<text transform="matrix(1 0 0 1 447.6699 286.8076)"><tspan x="0" y="0" class="st16 st11 st14">R</tspan><tspan x="7.78" y="0" class="st16 st11 st14">epo</tspan><tspan x="29.6" y="0" class="st16 st11 st14">r</tspan><tspan x="34.14" y="0" class="st16 st11 st14">t</tspan></text>
		</g>
	</g>
	<g class="st15">
		<g>
			<text transform="matrix(1 0 0 1 540.0957 286.8076)" class="st16 st11 st14">Invest.</text>
		</g>
	</g>
	<g class="st15">
		<g>
			<text transform="matrix(1 0 0 1 601.0146 192.7998)"><tspan x="0" y="0" class="st7 st11 st14">M</tspan><tspan x="10.15" y="0" class="st7 st11 st14">onitoring</tspan></text>
		</g>
	</g>
	<g class="st15">
		<g>
			<text transform="matrix(1 0 0 1 596.7314 272.3096)"><tspan x="0" y="0" class="st7 st11 st14">I</tspan><tspan x="3.5" y="0" class="st7 st11 st14">n</tspan><tspan x="10.79" y="0" class="st7 st11 st14">vestig</tspan><tspan x="45.13" y="0" class="st7 st11 st14">a</tspan><tspan x="51.7" y="0" class="st7 st11 st14">tive</tspan></text>
		</g>
	</g>
	<g class="st15">
		<g>
			<text transform="matrix(1 0 0 1 615.0723 301.6006)"><tspan x="0" y="0" class="st7 st11 st14">R</tspan><tspan x="7.78" y="0" class="st7 st11 st14">epo</tspan><tspan x="29.6" y="0" class="st7 st11 st14">r</tspan><tspan x="34.14" y="0" class="st7 st11 st14">t</tspan></text>
		</g>
	</g>
	<g class="st15">
		<g>
			<text transform="matrix(1 0 0 1 352.8896 327.2168)"><tspan x="0" y="0" class="st7 st11 st14">Social</tspan><tspan x="0" y="14.4" class="st7 st11 st14">cohesion</tspan></text>
		</g>
	</g>
	<g class="st15">
		<g>
			<text transform="matrix(1 0 0 1 351.6133 366.0771)"><tspan x="0" y="0" class="st7 st11 st14">I</tspan><tspan x="3.5" y="0" class="st7 st11 st14">n</tspan><tspan x="10.79" y="0" class="st7 st11 st14">vestig</tspan><tspan x="45.13" y="0" class="st7 st11 st14">.</tspan></text>
		</g>
	</g>
	<g class="st15">
		<g>
			<text transform="matrix(1 0 0 1 443.584 346.7051)"><tspan x="0" y="0" class="st7 st11 st14">M</tspan><tspan x="10.15" y="0" class="st7 st11 st14">emor</tspan><tspan x="40.75" y="0" class="st7 st11 st14">y</tspan><tspan x="0" y="14.4" class="st7 st11 st14">doc.</tspan></text>
		</g>
	</g>
	<g class="st15">
		<g>
			<text transform="matrix(0 -1 1 0 528.7705 372.2695)"><tspan x="0" y="0" class="st7 st11 st14">M</tspan><tspan x="10.15" y="0" class="st7 st11 st14">onitor.</tspan></text>
		</g>
	</g>
	<g>
		<g>
			<g>
				<text transform="matrix(1 0 0 1 350.3271 400.1182)"><tspan x="0" y="0" class="st16 st11 st17">Soc. </tspan><tspan x="0" y="12" class="st16 st11 st17">cohesion </tspan></text>
			</g>
		</g>
	</g>
	<g class="st15">
		<g>
			<text transform="matrix(1 0 0 1 408.3887 407.083)"><tspan x="0" y="0" class="st16 st11 st14">M</tspan><tspan x="10.15" y="0" class="st16 st11 st14">emor</tspan><tspan x="40.75" y="0" class="st16 st11 st14">y</tspan><tspan x="46.88" y="0" class="st16 st11 st14"> doc.</tspan></text>
		</g>
	</g>
	<g class="st15">
		<g>
			<text transform="matrix(1 0 0 1 509.123 407.3096)"><tspan x="0" y="0" class="st16 st11 st14">I</tspan><tspan x="3.5" y="0" class="st16 st11 st14">n</tspan><tspan x="10.79" y="0" class="st16 st11 st14">v</tspan><tspan x="16.15" y="0" class="st16 st11 st14">.</tspan></text>
		</g>
	</g>
	<g>
		<g>
			<g>
				<text transform="matrix(1 0 0 1 353.709 448.9492)" class="st16 st11 st17">Soc. cohesion</text>
			</g>
		</g>
	</g>
	<g class="st15">
		<g>
			<text transform="matrix(1 0 0 1 350.71 492.8564)"><tspan x="0" y="0" class="st16 st11 st14">I</tspan><tspan x="3.5" y="0" class="st16 st11 st14">n</tspan><tspan x="10.79" y="0" class="st16 st11 st14">vestig</tspan><tspan x="45.13" y="0" class="st16 st11 st14">a</tspan><tspan x="51.7" y="0" class="st16 st11 st14">tive</tspan></text>
		</g>
	</g>
	<g class="st15">
		<g>
			<text transform="matrix(1 0 0 1 472.6074 467.0732)"><tspan x="0" y="0" class="st16 st11 st14">R</tspan><tspan x="7.78" y="0" class="st16 st11 st14">epo</tspan><tspan x="29.6" y="0" class="st16 st11 st14">r</tspan><tspan x="34.14" y="0" class="st16 st11 st14">t</tspan></text>
		</g>
	</g>
	<g class="st15">
		<g>
			<text transform="matrix(1 0 0 1 455.5762 510.9805)"><tspan x="0" y="0" class="st16 st11 st14">M</tspan><tspan x="10.15" y="0" class="st16 st11 st14">emor</tspan><tspan x="40.75" y="0" class="st16 st11 st14">y</tspan><tspan x="46.88" y="0" class="st16 st11 st14"> doc.</tspan></text>
		</g>
	</g>
	<g class="st15">
		<g>
			<text transform="matrix(0 -1 1 0 577.6016 422.1436)" class="st7 st11 st14">Social cohesion</text>
		</g>
	</g>
	<g class="st15">
		<g>
			<text transform="matrix(1 0 0 1 598.2656 370.5293)"><tspan x="0" y="0" class="st7 st11 st14">I</tspan><tspan x="3.5" y="0" class="st7 st11 st14">n</tspan><tspan x="10.79" y="0" class="st7 st11 st14">vestig</tspan><tspan x="45.13" y="0" class="st7 st11 st14">a</tspan><tspan x="51.7" y="0" class="st7 st11 st14">tive</tspan></text>
		</g>
	</g>
	<g class="st15">
		<g>
			<text transform="matrix(1 0 0 1 561.9336 461.5596)"><tspan x="0" y="0" class="st7 st11 st14">R</tspan><tspan x="7.78" y="0" class="st7 st11 st14">epo</tspan><tspan x="29.6" y="0" class="st7 st11 st14">r</tspan><tspan x="34.14" y="0" class="st7 st11 st14">t</tspan></text>
		</g>
	</g>
	<g class="st15">
		<g>
			<text transform="matrix(1 0 0 1 620.3555 457.1553)"><tspan x="0" y="0" class="st7 st11 st14">M</tspan><tspan x="10.15" y="0" class="st7 st11 st14">emor</tspan><tspan x="40.75" y="0" class="st7 st11 st14">y</tspan><tspan x="0" y="14.4" class="st7 st11 st14">doc. </tspan></text>
		</g>
	</g>
	<g class="st15">
		<g>
			<text transform="matrix(1 0 0 1 559.9004 498.7598)"><tspan x="0" y="0" class="st16 st11 st14">M</tspan><tspan x="10.15" y="0" class="st16 st11 st14">emor</tspan><tspan x="40.75" y="0" class="st16 st11 st14">y</tspan><tspan x="46.88" y="0" class="st16 st11 st14"> </tspan><tspan x="0" y="14.4" class="st16 st11 st14">doc.</tspan></text>
		</g>
	</g>
	<g>
		<g>
			<g>
				<text transform="matrix(1 0 0 1 629.2803 502.8447)" class="st7 st18 st19">Invest.</text>
			</g>
		</g>
	</g>
	<g>
		<g>
			<g>
				<text transform="matrix(1 0 0 1 695.4941 80.4229)" class="st7 st18 st19">Invest.</text>
			</g>
		</g>
	</g>
	<g class="st15">
		<g>
			<text transform="matrix(1 0 0 1 770.1953 80.4229)"><tspan x="0" y="0" class="st7 st11 st14">R</tspan><tspan x="7.79" y="0" class="st7 st11 st14">epo</tspan><tspan x="29.62" y="0" class="st7 st11 st14">r</tspan><tspan x="34.15" y="0" class="st7 st11 st14">t</tspan></text>
		</g>
	</g>
	<g class="st15">
		<g>
			<text transform="matrix(1 0 0 1 831.1924 73.0771)"><tspan x="0" y="0" class="st7 st11 st14">M</tspan><tspan x="10.15" y="0" class="st7 st11 st14">emory </tspan><tspan x="0" y="14.4" class="st7 st11 st14">doc.</tspan></text>
		</g>
	</g>
	<g class="st15">
		<g>
			<text transform="matrix(1 0 0 1 910.7607 80.8379)"><tspan x="0" y="0" class="st7 st11 st14">I</tspan><tspan x="3.5" y="0" class="st7 st11 st14">n</tspan><tspan x="10.79" y="0" class="st7 st11 st14">vest.</tspan></text>
		</g>
	</g>
	<g class="st15">
		<g>
			<text transform="matrix(1 0 0 1 741.3975 155.4766)"><tspan x="0" y="0" class="st16 st11 st14">R</tspan><tspan x="7.78" y="0" class="st16 st11 st14">epo</tspan><tspan x="29.6" y="0" class="st16 st11 st14">r</tspan><tspan x="34.14" y="0" class="st16 st11 st14">t</tspan></text>
		</g>
	</g>
	<g class="st15">
		<g>
			<text transform="matrix(1 0 0 1 724.2998 257.4043)"><tspan x="0" y="0" class="st16 st11 st14">I</tspan><tspan x="3.5" y="0" class="st16 st11 st14">n</tspan><tspan x="10.79" y="0" class="st16 st11 st14">vestig</tspan><tspan x="45.13" y="0" class="st16 st11 st14">a</tspan><tspan x="51.7" y="0" class="st16 st11 st14">tive</tspan></text>
		</g>
	</g>
	<g class="st15">
		<g>
			<text transform="matrix(1 0 0 1 731.0703 331.124)"><tspan x="0" y="0" class="st16 st11 st14">M</tspan><tspan x="10.15" y="0" class="st16 st11 st14">onitoring</tspan></text>
		</g>
	</g>
	<g class="st15">
		<g>
			<text transform="matrix(0 -1 1 0 850.1494 168.4727)"><tspan x="0" y="0" class="st7 st11 st14">R</tspan><tspan x="7.78" y="0" class="st7 st11 st14">epo</tspan><tspan x="29.6" y="0" class="st7 st11 st14">r</tspan><tspan x="34.14" y="0" class="st7 st11 st14">t</tspan></text>
		</g>
	</g>
	<g class="st15">
		<g>
			<text transform="matrix(1 0 0 1 876.8867 155.4785)"><tspan x="0" y="0" class="st7 st11 st14">I</tspan><tspan x="3.5" y="0" class="st7 st11 st14">n</tspan><tspan x="10.79" y="0" class="st7 st11 st14">vestig</tspan><tspan x="45.13" y="0" class="st7 st11 st14">a</tspan><tspan x="51.68" y="0" class="st7 st11 st14">tive</tspan></text>
		</g>
	</g>
	<g class="st15">
		<g>
			<text transform="matrix(0 -1 1 0 868.3291 316.1201)"><tspan x="0" y="0" class="st7 st11 st14">M</tspan><tspan x="10.15" y="0" class="st7 st11 st14">onitoring</tspan></text>
		</g>
	</g>
	<g class="st15">
		<g>
			<text transform="matrix(0 -1 1 0 930.0283 331.1328)" class="st7 st11 st14">Social cohesion</text>
		</g>
	</g>
	<g class="st15">
		<g>
			<text transform="matrix(1 0 0 1 685.3203 377.9248)"><tspan x="0" y="0" class="st16 st11 st17">M</tspan><tspan x="8.46" y="0" class="st16 st11 st17">emor</tspan><tspan x="33.96" y="0" class="st16 st11 st17">y  </tspan><tspan x="9.67" y="12" class="st16 st11 st17">doc.</tspan><tspan x="29.39" y="12" class="st16 st11 st17"> </tspan></text>
		</g>
	</g>
	<g class="st15">
		<g>
			<text transform="matrix(1 0 0 1 756.457 377.9248)"><tspan x="0" y="0" class="st16 st11 st14">Social </tspan><tspan x="-8.55" y="14.4" class="st16 st11 st14">cohesion</tspan><tspan x="43.39" y="14.4" class="st16 st11 st14"> </tspan></text>
		</g>
	</g>
	<g class="st15">
		<g>
			<text transform="matrix(1 0 0 1 829.0742 386.2822)"><tspan x="0" y="0" class="st16 st11 st14">R</tspan><tspan x="7.78" y="0" class="st16 st11 st14">epo</tspan><tspan x="29.6" y="0" class="st16 st11 st14">r</tspan><tspan x="34.14" y="0" class="st16 st11 st14">t</tspan></text>
		</g>
	</g>
	<g class="st15">
		<g>
			<text transform="matrix(1 0 0 1 885.1152 386.2803)"><tspan x="0" y="0" class="st16 st11 st14">I</tspan><tspan x="3.5" y="0" class="st16 st11 st14">n</tspan><tspan x="10.79" y="0" class="st16 st11 st14">vestig</tspan><tspan x="45.13" y="0" class="st16 st11 st14">a</tspan><tspan x="51.7" y="0" class="st16 st11 st14">tive</tspan></text>
		</g>
	</g>
	<g class="st15">
		<g>
			<text transform="matrix(0 -1 1 0 707.0049 461.4004)"><tspan x="0" y="0" class="st7 st11 st14">R</tspan><tspan x="7.78" y="0" class="st7 st11 st14">epo</tspan><tspan x="29.6" y="0" class="st7 st11 st14">r</tspan><tspan x="34.14" y="0" class="st7 st11 st14">t</tspan></text>
		</g>
	</g>
	<g class="st15">
		<g>
			<text transform="matrix(1 0 0 1 745.9609 445.6094)"><tspan x="0" y="0" class="st7 st11 st14">I</tspan><tspan x="3.5" y="0" class="st7 st11 st14">n</tspan><tspan x="10.79" y="0" class="st7 st11 st14">vestig</tspan><tspan x="45.13" y="0" class="st7 st11 st14">a</tspan><tspan x="51.7" y="0" class="st7 st11 st14">tive</tspan></text>
		</g>
	</g>
	<g class="st15">
		<g>
			<text transform="matrix(1 0 0 1 719.1123 502)"><tspan x="0" y="0" class="st16 st11 st14">R</tspan><tspan x="7.79" y="0" class="st16 st11 st14">epo</tspan><tspan x="29.62" y="0" class="st16 st11 st14">r</tspan><tspan x="34.15" y="0" class="st16 st11 st14">t</tspan></text>
		</g>
	</g>
	<g class="st15">
		<g>
			<text transform="matrix(1 0 0 1 800.2539 502)"><tspan x="0" y="0" class="st16 st11 st14">I</tspan><tspan x="3.5" y="0" class="st16 st11 st14">n</tspan><tspan x="10.79" y="0" class="st16 st11 st14">vest.</tspan></text>
		</g>
	</g>
	<g>
		<g>
			<g>
				<text transform="matrix(1 0 0 1 851.9189 445.6094)" class="st16 st18 st19">Report</text>
			</g>
		</g>
	</g>
	<g class="st15">
		<g>
			<text transform="matrix(0 -1 1 0 873.4795 516.8301)"><tspan x="0" y="0" class="st7 st11 st14">I</tspan><tspan x="3.5" y="0" class="st7 st11 st14">n</tspan><tspan x="10.79" y="0" class="st7 st11 st14">vestig.</tspan></text>
		</g>
	</g>
	<g class="st15">
		<g>
			<text transform="matrix(1 0 0 1 909.6211 442.7773)"><tspan x="0" y="0" class="st16 st11 st14">M</tspan><tspan x="10.15" y="0" class="st16 st11 st14">emor</tspan><tspan x="40.75" y="0" class="st16 st11 st14">y</tspan><tspan x="9.13" y="14.4" class="st16 st11 st14">doc. </tspan></text>
		</g>
	</g>
	<g class="st15">
		<g>
			<text transform="matrix(1 0 0 1 908.2451 498.334)"><tspan x="0" y="0" class="st7 st11 st14">M</tspan><tspan x="10.15" y="0" class="st7 st11 st14">emor</tspan><tspan x="40.75" y="0" class="st7 st11 st14">y</tspan><tspan x="0" y="14.4" class="st7 st11 st14">doc. </tspan></text>
		</g>
	</g>
</g>
<text transform="matrix(1 0 0 1 347.4912 50.5049)" class="st20 st21">TRANSPARENCY AND ACCOUNTABILITY</text>
<text transform="matrix(1 0 0 1 678.8711 50.5049)" class="st20 st21">POLICYMAKING</text>
<text transform="matrix(1 0 0 1 346.9316 538.0771)" class="st20 st21">HUMAN RIGHTS</text>
<text transform="matrix(1 0 0 1 902.875 538.0771)" class="st20 st21">MEMORY</text>
<text transform="matrix(1 0 0 1 682.9785 538.0771)" class="st20 st21">SURVEILLANCE</text>
<rect x="674.08" y="615.49" class="st10" width="305.83" height="90.51"/>
<text transform="matrix(1 0 0 1 674.0752 627.167)"><tspan x="0" y="0" class="st11 st12 st13">	</tspan><tspan x="22.06" y="0" class="st11 st12">C</tspan><tspan x="33.04" y="0" class="st11 st12">row</tspan><tspan x="62.27" y="0" class="st11 st12">dsou</tspan><tspan x="100.41" y="0" class="st11 st12">r</tspan><tspan x="106.7" y="0" class="st11 st12">ced</tspan><tspan x="0" y="24" class="st11 st12 st13">	</tspan><tspan x="22.06" y="24" class="st11 st12">Whistle-bl</tspan><tspan x="104.06" y="24" class="st11 st12">o</tspan><tspan x="113.53" y="24" class="st11 st12">w</tspan><tspan x="126.99" y="24" class="st11 st12">e</tspan><tspan x="136.28" y="24" class="st11 st12">r</tspan><tspan x="142.48" y="24" class="st11 st12">s</tspan><tspan x="0" y="48" class="st11 st12 st13">	</tspan><tspan x="22.06" y="48" class="st11 st12">Governme</tspan><tspan x="101.96" y="48" class="st11 st12">n</tspan><tspan x="111.77" y="48" class="st11 st12">ta</tspan><tspan x="127.53" y="48" class="st11 st12">l</tspan><tspan x="131.86" y="48" class="st11 st12"> but n</tspan><tspan x="179.37" y="48" class="st11 st12">o</tspan><tspan x="188.97" y="48" class="st11 st12">t public d</tspan><tspan x="264.9" y="48" class="st11 st12">a</tspan><tspan x="273.66" y="48" class="st11 st12">ta</tspan></text>
<text transform="matrix(1 0 0 1 345.7441 593.5859)" class="st20 st21">LEGEND</text>
</svg>
