<?xml version="1.0" encoding="utf-8"?>
<!-- Generator: Adobe Illustrator 23.0.2, SVG Export Plug-In . SVG Version: 6.00 Build 0)  -->
<svg version="1.1" id="Layer_1" xmlns="http://www.w3.org/2000/svg" xmlns:xlink="http://www.w3.org/1999/xlink" x="0px" y="0px"
	 viewBox="0 0 635.14 679.85" style="enable-background:new 0 0 635.14 679.85;" xml:space="preserve">
<style type="text/css">
	.st0{fill:#EE3938;}
	.st1{fill:#F1C6C0;}
	.st2{fill:none;stroke:#FFFFFF;stroke-width:0.5392;}
	.st3{fill:#A6A8AB;}
	.st4{fill:#5E6264;}
	.st5{fill:#C9C9CB;}
	.st6{fill:#B57972;}
	.st7{fill:#FFFFFF;}
	.st8{fill:#919291;}
	.st9{fill:none;stroke:#000000;stroke-miterlimit:10;}
	.st10{fill:none;}
	.st11{font-family:'Work Sans';}
	.st12{font-size:16px;}
	.st13{letter-spacing:16;}
	.st14{font-size:12px;}
	.st16{fill:#231F20;}
	.st17{font-size:10px;}
	.st18{font-family:'Work Sans';}
	.st19{font-size:13.2766px;}
	.st20{font-family:'Work Sans'; font-weight:700;}
	.st21{font-size:14.2979px;}
</style>
<g>
	<rect x="2.15" y="21.43" class="st0" width="43.89" height="52.66"/>
	<rect x="49.8" y="21.43" class="st1" width="282.14" height="52.66"/>
	<rect x="49.8" y="21.43" class="st2" width="282.14" height="52.66"/>
	<rect x="2.15" y="76.87" class="st3" width="236.39" height="140.72"/>
	<rect x="2.15" y="76.87" class="st2" width="236.39" height="140.72"/>
	<rect x="2.15" y="218.52" class="st3" width="46.28" height="53.56"/>
	<rect x="2.15" y="218.52" class="st2" width="46.28" height="53.56"/>
	<rect x="49.68" y="218.52" class="st3" width="141.34" height="53.56"/>
	<rect x="49.68" y="218.52" class="st2" width="141.34" height="53.56"/>
	<rect x="192.27" y="218.52" class="st3" width="46.28" height="53.56"/>
	<rect x="192.27" y="218.52" class="st2" width="46.28" height="53.56"/>
	<rect x="242.31" y="76.87" width="89.63" height="138.95"/>
	<rect x="242.31" y="216.74" width="89.63" height="27.05"/>
	<rect x="242.31" y="246.57" class="st4" width="89.63" height="25.5"/>
	<rect x="242.31" y="246.57" class="st2" width="89.63" height="25.5"/>
	<rect x="2.15" y="276.71" width="79.85" height="30.26"/>
	<rect x="2.15" y="307.9" width="79.85" height="30.26"/>
	<rect x="83.25" y="276.71" width="79.85" height="61.46"/>
	<rect x="164.35" y="276.71" width="39.3" height="61.46"/>
	<rect x="2.15" y="340.95" class="st1" width="49.43" height="48.61"/>
	<rect x="2.15" y="340.95" class="st2" width="49.43" height="48.61"/>
	<rect x="52.84" y="340.95" class="st1" width="100.12" height="48.61"/>
	<rect x="52.84" y="340.95" class="st2" width="100.12" height="48.61"/>
	<rect x="154.21" y="340.95" class="st1" width="49.44" height="48.61"/>
	<rect x="154.21" y="340.95" class="st2" width="49.44" height="48.61"/>
	<rect x="2.15" y="392.34" class="st3" width="85.64" height="28.43"/>
	<rect x="2.15" y="392.34" class="st2" width="85.64" height="28.43"/>
	<rect x="2.15" y="421.7" class="st3" width="85.64" height="57.79"/>
	<rect x="2.15" y="421.7" class="st2" width="85.64" height="57.79"/>
	<rect x="89.04" y="392.34" class="st3" width="114.61" height="65.13"/>
	<rect x="89.04" y="392.34" class="st2" width="114.61" height="65.13"/>
	<rect x="89.04" y="458.39" class="st3" width="114.61" height="21.09"/>
	<rect x="89.04" y="458.39" class="st2" width="114.61" height="21.09"/>
	<rect x="207.41" y="276.71" class="st4" width="40.67" height="121.02"/>
	<rect x="207.41" y="276.71" class="st2" width="40.67" height="121.02"/>
	<rect x="249.34" y="276.71" class="st4" width="82.6" height="121.02"/>
	<rect x="249.34" y="276.71" class="st2" width="82.6" height="121.02"/>
	<rect x="207.41" y="398.65" class="st4" width="61.64" height="39.72"/>
	<rect x="207.41" y="398.65" class="st2" width="61.64" height="39.72"/>
	<rect x="270.3" y="398.65" class="st4" width="61.64" height="39.72"/>
	<rect x="270.3" y="398.65" class="st2" width="61.64" height="39.72"/>
	<rect x="207.41" y="441.16" class="st5" width="60.38" height="38.33"/>
	<rect x="207.41" y="441.16" class="st2" width="60.38" height="38.33"/>
	<rect x="271.56" y="441.16" class="st0" width="60.38" height="38.33"/>
	<rect x="338.21" y="21.43" class="st6" width="68.04" height="34.04"/>
	<rect x="338.21" y="21.43" class="st2" width="68.04" height="34.04"/>
	<rect x="410.01" y="21.43" width="69.71" height="34.04"/>
	<rect x="480.97" y="21.43" width="69.71" height="34.04"/>
	<rect x="551.94" y="21.43" width="69.71" height="34.04"/>
	<rect x="338.21" y="58.25" class="st3" width="150.09" height="101.43"/>
	<rect x="338.21" y="58.25" class="st2" width="150.09" height="101.43"/>
	<rect x="338.21" y="160.6" class="st3" width="150.09" height="101.43"/>
	<rect x="338.21" y="160.6" class="st2" width="150.09" height="101.43"/>
	<rect x="338.21" y="262.96" class="st3" width="150.09" height="50.25"/>
	<rect x="338.21" y="262.96" class="st2" width="150.09" height="50.25"/>
	<rect x="492.06" y="58.25" class="st4" width="20.55" height="117.17"/>
	<rect x="492.06" y="58.25" class="st2" width="20.55" height="117.17"/>
	<rect x="513.87" y="58.25" class="st4" width="107.77" height="117.17"/>
	<rect x="513.87" y="58.25" class="st2" width="107.77" height="117.17"/>
	<rect x="492.06" y="176.35" class="st4" width="54.82" height="136.86"/>
	<rect x="492.06" y="176.35" class="st2" width="54.82" height="136.86"/>
	<rect x="548.14" y="176.35" class="st4" width="73.51" height="136.86"/>
	<rect x="548.14" y="176.35" class="st2" width="73.51" height="136.86"/>
	<rect x="338.21" y="315.99" class="st1" width="46.19" height="52.45"/>
	<rect x="338.21" y="315.99" class="st2" width="46.19" height="52.45"/>
	<rect x="385.66" y="315.99" class="st1" width="93.64" height="52.45"/>
	<rect x="385.66" y="315.99" class="st2" width="93.64" height="52.45"/>
	<rect x="480.55" y="315.99" class="st1" width="46.19" height="52.45"/>
	<rect x="480.55" y="315.99" class="st2" width="46.19" height="52.45"/>
	<rect x="528" y="315.99" class="st1" width="93.64" height="52.45"/>
	<rect x="528" y="315.99" class="st2" width="93.64" height="52.45"/>
	<rect x="338.21" y="373.08" class="st4" width="39.88" height="59.61"/>
	<rect x="338.21" y="373.08" class="st2" width="39.88" height="59.61"/>
	<rect x="379.34" y="373.08" class="st4" width="122.15" height="59.61"/>
	<rect x="379.34" y="373.08" class="st2" width="122.15" height="59.61"/>
	<rect x="338.21" y="435.47" class="st1" width="108.44" height="44.02"/>
	<rect x="338.21" y="435.47" class="st2" width="108.44" height="44.02"/>
	<rect x="447.9" y="435.47" class="st1" width="53.59" height="44.02"/>
	<rect x="447.9" y="435.47" class="st2" width="53.59" height="44.02"/>
	<rect x="505.25" y="373.08" class="st3" width="43.96" height="51.81"/>
	<rect x="505.25" y="373.08" class="st2" width="43.96" height="51.81"/>
	<rect x="505.25" y="427.67" width="43.96" height="51.81"/>
	<rect x="555.49" y="373.08" class="st1" width="66.16" height="70.01"/>
	<rect x="555.49" y="373.08" class="st2" width="66.16" height="70.01"/>
	<rect x="555.49" y="445.87" class="st4" width="66.16" height="33.62"/>
	<rect x="555.49" y="445.87" class="st2" width="66.16" height="33.62"/>
	<rect y="270.19" class="st7" width="338.21" height="7.97"/>
	<rect x="332.38" y="366.73" class="st7" width="289.26" height="7.97"/>
	<rect x="331.04" y="15.83" class="st7" width="7.97" height="464.26"/>
	<rect x="547.63" y="366.92" class="st7" width="7.97" height="113.17"/>
	<path class="st4" d="M8.93,612.56H8.48c-3.41,0-6.18-2.77-6.18-6.18s2.77-6.18,6.18-6.18h0.45c3.41,0,6.17,2.77,6.17,6.18
		S12.34,612.56,8.93,612.56"/>
	<path class="st0" d="M337.43,612.56h-0.45c-3.41,0-6.18-2.76-6.18-6.18c0-3.41,2.77-6.17,6.18-6.17h0.45
		c3.41,0,6.17,2.76,6.17,6.17C343.61,609.79,340.84,612.56,337.43,612.56"/>
	<path d="M8.93,591.21H8.48c-3.41,0-6.18-2.76-6.18-6.18c0-3.41,2.77-6.17,6.18-6.17h0.45c3.41,0,6.17,2.76,6.17,6.17
		C15.11,588.45,12.34,591.21,8.93,591.21"/>
	<path class="st8" d="M8.93,636.66H8.48c-3.41,0-6.18-2.76-6.18-6.17s2.77-6.18,6.18-6.18h0.45c3.41,0,6.17,2.76,6.17,6.18
		C15.11,633.89,12.34,636.66,8.93,636.66"/>
	<path class="st5" d="M8.93,660.33H8.48c-3.41,0-6.18-2.76-6.18-6.18c0-3.41,2.77-6.18,6.18-6.18h0.45c3.41,0,6.17,2.77,6.17,6.18
		C15.11,657.56,12.34,660.33,8.93,660.33"/>
	<g>
		<path class="st1" d="M337.43,591.21h-0.45c-3.41,0-6.18-2.76-6.18-6.17s2.77-6.18,6.18-6.18h0.45c3.41,0,6.17,2.77,6.17,6.18
			C343.61,588.45,340.84,591.21,337.43,591.21"/>
	</g>
	<g>
		<path class="st6" d="M337.43,636.66h-0.45c-3.41,0-6.18-2.76-6.18-6.18c0-3.41,2.77-6.17,6.18-6.17h0.45
			c3.41,0,6.17,2.76,6.17,6.17C343.61,633.89,340.84,636.66,337.43,636.66"/>
	</g>
	<g>
		<line class="st9" x1="1.01" y1="560.71" x2="60.73" y2="560.71"/>
	</g>
	<rect x="1.97" y="576.85" class="st10" width="281.26" height="103"/>
	<text transform="matrix(1 0 0 1 1.9743 588.5293)" class="st11 st12 st13"> </text>
	<text transform="matrix(1 0 0 1 24.0344 588.5293)" class="st11 st12">App</text>
	<text transform="matrix(1 0 0 1 54.7541 588.5293)" class="st11 st12">r</text>
	<text transform="matrix(1 0 0 1 61.0441 588.5293)" class="st11 st12">opri</text>
	<text transform="matrix(1 0 0 1 91.6345 588.5293)" class="st11 st12">a</text>
	<text transform="matrix(1 0 0 1 100.3845 588.5293)" class="st11 st12">ting d</text>
	<text transform="matrix(1 0 0 1 145.5642 588.5293)" class="st11 st12">a</text>
	<text transform="matrix(1 0 0 1 154.3044 588.5293)" class="st11 st12">ta</text>
	<text transform="matrix(1 0 0 1 1.9743 612.5293)" class="st11 st12 st13"> </text>
	<text transform="matrix(1 0 0 1 24.0344 612.5293)" class="st11 st12">Own research</text>
	<text transform="matrix(1 0 0 1 1.9743 636.5293)" class="st11 st12 st13"> </text>
	<text transform="matrix(1 0 0 1 24.0344 636.5293)" class="st11 st12">Existing data</text>
	<text transform="matrix(1 0 0 1 1.9743 660.5293)" class="st11 st12 st13"> </text>
	<text transform="matrix(1 0 0 1 24.0344 660.5293)" class="st11 st12">Collabo</text>
	<text transform="matrix(1 0 0 1 83.3942 660.5293)" class="st11 st12">r</text>
	<text transform="matrix(1 0 0 1 89.7141 660.5293)" class="st11 st12">a</text>
	<text transform="matrix(1 0 0 1 98.444 660.5293)" class="st11 st12">tion</text>
	<text transform="matrix(1 0 0 1 129.0344 660.5293)" class="st11 st12"> </text>
	<text transform="matrix(1 0 0 1 134.1442 660.5293)" class="st11 st12">with o</text>
	<text transform="matrix(1 0 0 1 183.8845 660.5293)" class="st11 st12">r</text>
	<text transform="matrix(1 0 0 1 190.0144 660.5293)" class="st11 st12">ganis</text>
	<text transform="matrix(1 0 0 1 230.444 660.5293)" class="st11 st12">a</text>
	<text transform="matrix(1 0 0 1 239.194 660.5293)" class="st11 st12">tions </text>
	<g>
		<g>
			<g>
				<g>
					<text transform="matrix(1 0 0 1 3.906 54.5029)" class="st7 st11 st14">Report</text>
				</g>
			</g>
		</g>
		<g class="st15">
			<g>
				<text transform="matrix(1 0 0 1 163.3747 54.5029)" class="st16 st11 st14">M</text>
				<text transform="matrix(1 0 0 1 173.5246 54.5029)" class="st16 st11 st14">onitoring</text>
			</g>
		</g>
		<g class="st15">
			<g>
				<text transform="matrix(1 0 0 1 96.2976 153.9746)" class="st16 st11 st14">M</text>
				<text transform="matrix(1 0 0 1 106.4475 153.9746)" class="st16 st11 st14">onitoring</text>
			</g>
		</g>
		<g>
			<g>
				<g>
					<text transform="matrix(1 0 0 1 6.3962 243.0243)" class="st16 st11 st17">Memory</text>
					<text transform="matrix(1 0 0 1 6.3962 255.0243)" class="st16 st11 st17">doc. </text>
				</g>
			</g>
		</g>
		<g class="st15">
			<g>
				<text transform="matrix(1 0 0 1 102.9001 248.1698)" class="st16 st11 st14">R</text>
				<text transform="matrix(1 0 0 1 110.6799 248.1698)" class="st16 st11 st14">epo</text>
				<text transform="matrix(1 0 0 1 132.5002 248.1698)" class="st16 st11 st14">r</text>
				<text transform="matrix(1 0 0 1 137.0402 248.1698)" class="st16 st11 st14">t</text>
			</g>
		</g>
		<g class="st15">
			<g>
				<text transform="matrix(1 0 0 1 195.3259 248.1698)" class="st16 st11 st14">Invest.</text>
			</g>
		</g>
		<g class="st15">
			<g>
				<text transform="matrix(1 0 0 1 256.2448 154.1621)" class="st7 st11 st14">M</text>
				<text transform="matrix(1 0 0 1 266.3947 154.1621)" class="st7 st11 st14">onitoring</text>
			</g>
		</g>
		<g class="st15">
			<g>
				<text transform="matrix(1 0 0 1 251.9616 233.6718)" class="st7 st11 st14">I</text>
				<text transform="matrix(1 0 0 1 255.4616 233.6718)" class="st7 st11 st14">n</text>
				<text transform="matrix(1 0 0 1 262.7517 233.6718)" class="st7 st11 st14">vestig</text>
				<text transform="matrix(1 0 0 1 297.0915 233.6718)" class="st7 st11 st14">a</text>
				<text transform="matrix(1 0 0 1 303.6618 233.6718)" class="st7 st11 st14">tive</text>
			</g>
		</g>
		<g class="st15">
			<g>
				<text transform="matrix(1 0 0 1 270.3025 262.9628)" class="st7 st11 st14">R</text>
				<text transform="matrix(1 0 0 1 278.0827 262.9628)" class="st7 st11 st14">epo</text>
				<text transform="matrix(1 0 0 1 299.9026 262.9628)" class="st7 st11 st14">r</text>
				<text transform="matrix(1 0 0 1 304.4426 262.9628)" class="st7 st11 st14">t</text>
			</g>
		</g>
		<g class="st15">
			<g>
				<text transform="matrix(1 0 0 1 8.1198 288.579)" class="st7 st11 st14">Social</text>
				<text transform="matrix(1 0 0 1 8.1198 302.979)" class="st7 st11 st14">cohesion</text>
			</g>
		</g>
		<g class="st15">
			<g>
				<text transform="matrix(1 0 0 1 6.8435 327.4393)" class="st7 st11 st14">I</text>
				<text transform="matrix(1 0 0 1 10.3435 327.4393)" class="st7 st11 st14">n</text>
				<text transform="matrix(1 0 0 1 17.6335 327.4393)" class="st7 st11 st14">vestig</text>
				<text transform="matrix(1 0 0 1 51.9733 327.4393)" class="st7 st11 st14">.</text>
			</g>
		</g>
		<g class="st15">
			<g>
				<text transform="matrix(1 0 0 1 98.8142 308.0673)" class="st7 st11 st14">M</text>
				<text transform="matrix(1 0 0 1 108.9641 308.0673)" class="st7 st11 st14">emor</text>
				<text transform="matrix(1 0 0 1 139.5642 308.0673)" class="st7 st11 st14">y</text>
				<text transform="matrix(1 0 0 1 98.8142 322.4673)" class="st7 st11 st14">doc.</text>
			</g>
		</g>
		<g class="st15">
			<g>
				<text transform="matrix(0 -1 1 0 184.0007 333.6313)" class="st7 st11 st14">M</text>
				<text transform="matrix(0 -1 1 0 184.0007 323.481)" class="st7 st11 st14">onitor.</text>
			</g>
		</g>
		<g>
			<g>
				<g>
					<text transform="matrix(1 0 0 1 5.5573 361.4803)" class="st16 st11 st17">Soc. </text>
					<text transform="matrix(1 0 0 1 5.5573 373.4803)" class="st16 st11 st17">cohesion </text>
				</g>
			</g>
		</g>
		<g class="st15">
			<g>
				<text transform="matrix(1 0 0 1 63.6189 368.4452)" class="st16 st11 st14">M</text>
				<text transform="matrix(1 0 0 1 73.7688 368.4452)" class="st16 st11 st14">emor</text>
				<text transform="matrix(1 0 0 1 104.3689 368.4452)" class="st16 st11 st14">y</text>
				<text transform="matrix(1 0 0 1 110.4987 368.4452)" class="st16 st11 st14"> doc.</text>
			</g>
		</g>
		<g class="st15">
			<g>
				<text transform="matrix(1 0 0 1 164.3532 368.6718)" class="st16 st11 st14">I</text>
				<text transform="matrix(1 0 0 1 167.8532 368.6718)" class="st16 st11 st14">n</text>
				<text transform="matrix(1 0 0 1 175.1433 368.6718)" class="st16 st11 st14">v</text>
				<text transform="matrix(1 0 0 1 180.5031 368.6718)" class="st16 st11 st14">.</text>
			</g>
		</g>
		<g>
			<g>
				<g>
					<text transform="matrix(1 0 0 1 8.9392 410.3114)" class="st16 st11 st17">Soc. cohesion</text>
				</g>
			</g>
		</g>
		<g class="st15">
			<g>
				<text transform="matrix(1 0 0 1 5.9401 454.2186)" class="st16 st11 st14">I</text>
				<text transform="matrix(1 0 0 1 9.4401 454.2186)" class="st16 st11 st14">n</text>
				<text transform="matrix(1 0 0 1 16.7302 454.2186)" class="st16 st11 st14">vestig</text>
				<text transform="matrix(1 0 0 1 51.07 454.2186)" class="st16 st11 st14">a</text>
				<text transform="matrix(1 0 0 1 57.6403 454.2186)" class="st16 st11 st14">tive</text>
			</g>
		</g>
		<g class="st15">
			<g>
				<text transform="matrix(1 0 0 1 127.8376 428.4354)" class="st16 st11 st14">R</text>
				<text transform="matrix(1 0 0 1 135.6174 428.4354)" class="st16 st11 st14">epo</text>
				<text transform="matrix(1 0 0 1 157.4377 428.4354)" class="st16 st11 st14">r</text>
				<text transform="matrix(1 0 0 1 161.9777 428.4354)" class="st16 st11 st14">t</text>
			</g>
		</g>
		<g class="st15">
			<g>
				<text transform="matrix(1 0 0 1 110.8064 472.3427)" class="st16 st11 st14">M</text>
				<text transform="matrix(1 0 0 1 120.9563 472.3427)" class="st16 st11 st14">emor</text>
				<text transform="matrix(1 0 0 1 151.5564 472.3427)" class="st16 st11 st14">y</text>
				<text transform="matrix(1 0 0 1 157.6862 472.3427)" class="st16 st11 st14"> doc.</text>
			</g>
		</g>
		<g class="st15">
			<g>
				<text transform="matrix(0 -1 1 0 232.8317 383.5054)" class="st7 st11 st14">Social cohesion</text>
			</g>
		</g>
		<g class="st15">
			<g>
				<text transform="matrix(1 0 0 1 253.4958 331.8915)" class="st7 st11 st14">I</text>
				<text transform="matrix(1 0 0 1 256.9958 331.8915)" class="st7 st11 st14">n</text>
				<text transform="matrix(1 0 0 1 264.2859 331.8915)" class="st7 st11 st14">vestig</text>
				<text transform="matrix(1 0 0 1 298.6257 331.8915)" class="st7 st11 st14">a</text>
				<text transform="matrix(1 0 0 1 305.196 331.8915)" class="st7 st11 st14">tive</text>
			</g>
		</g>
		<g class="st15">
			<g>
				<text transform="matrix(1 0 0 1 217.1638 422.9218)" class="st7 st11 st14">R</text>
				<text transform="matrix(1 0 0 1 224.944 422.9218)" class="st7 st11 st14">epo</text>
				<text transform="matrix(1 0 0 1 246.7639 422.9218)" class="st7 st11 st14">r</text>
				<text transform="matrix(1 0 0 1 251.3039 422.9218)" class="st7 st11 st14">t</text>
			</g>
		</g>
		<g class="st15">
			<g>
				<text transform="matrix(1 0 0 1 275.5857 418.5175)" class="st7 st11 st14">M</text>
				<text transform="matrix(1 0 0 1 285.7356 418.5175)" class="st7 st11 st14">emor</text>
				<text transform="matrix(1 0 0 1 316.3357 418.5175)" class="st7 st11 st14">y</text>
				<text transform="matrix(1 0 0 1 275.5857 432.9175)" class="st7 st11 st14">doc. </text>
			</g>
		</g>
		<g class="st15">
			<g>
				<text transform="matrix(1 0 0 1 215.1306 460.1219)" class="st16 st11 st14">M</text>
				<text transform="matrix(1 0 0 1 225.2805 460.1219)" class="st16 st11 st14">emor</text>
				<text transform="matrix(1 0 0 1 255.8806 460.1219)" class="st16 st11 st14">y</text>
				<text transform="matrix(1 0 0 1 262.0105 460.1219)" class="st16 st11 st14"> </text>
				<text transform="matrix(1 0 0 1 215.1306 474.522)" class="st16 st11 st14">doc.</text>
			</g>
		</g>
		<g>
			<g>
				<g>
					<text transform="matrix(1 0 0 1 280.5105 464.2069)" class="st7 st18 st19">Invest.</text>
				</g>
			</g>
		</g>
		<g>
			<g>
				<g>
					<text transform="matrix(1 0 0 1 350.7243 41.7852)" class="st7 st18 st19">Invest.</text>
				</g>
			</g>
		</g>
		<g class="st15">
			<g>
				<text transform="matrix(1 0 0 1 425.4255 41.7852)" class="st7 st11 st14">R</text>
				<text transform="matrix(1 0 0 1 433.2155 41.7852)" class="st7 st11 st14">epo</text>
				<text transform="matrix(1 0 0 1 455.0456 41.7852)" class="st7 st11 st14">r</text>
				<text transform="matrix(1 0 0 1 459.5754 41.7852)" class="st7 st11 st14">t</text>
			</g>
		</g>
		<g class="st15">
			<g>
				<text transform="matrix(1 0 0 1 486.4226 34.4395)" class="st7 st11 st14">M</text>
				<text transform="matrix(1 0 0 1 496.5725 34.4395)" class="st7 st11 st14">emory </text>
				<text transform="matrix(1 0 0 1 486.4226 48.8394)" class="st7 st11 st14">doc.</text>
			</g>
		</g>
		<g class="st15">
			<g>
				<text transform="matrix(1 0 0 1 565.9909 42.2002)" class="st7 st11 st14">I</text>
				<text transform="matrix(1 0 0 1 569.4909 42.2002)" class="st7 st11 st14">n</text>
				<text transform="matrix(1 0 0 1 576.7809 42.2002)" class="st7 st11 st14">vest.</text>
			</g>
		</g>
		<g class="st15">
			<g>
				<text transform="matrix(1 0 0 1 396.6277 116.8389)" class="st16 st11 st14">R</text>
				<text transform="matrix(1 0 0 1 404.4079 116.8389)" class="st16 st11 st14">epo</text>
				<text transform="matrix(1 0 0 1 426.2278 116.8389)" class="st16 st11 st14">r</text>
				<text transform="matrix(1 0 0 1 430.7678 116.8389)" class="st16 st11 st14">t</text>
			</g>
		</g>
		<g class="st15">
			<g>
				<text transform="matrix(1 0 0 1 379.53 218.7665)" class="st16 st11 st14">I</text>
				<text transform="matrix(1 0 0 1 383.03 218.7665)" class="st16 st11 st14">n</text>
				<text transform="matrix(1 0 0 1 390.32 218.7665)" class="st16 st11 st14">vestig</text>
				<text transform="matrix(1 0 0 1 424.6599 218.7665)" class="st16 st11 st14">a</text>
				<text transform="matrix(1 0 0 1 431.2302 218.7665)" class="st16 st11 st14">tive</text>
			</g>
		</g>
		<g class="st15">
			<g>
				<text transform="matrix(1 0 0 1 386.3005 292.4862)" class="st16 st11 st14">M</text>
				<text transform="matrix(1 0 0 1 396.4504 292.4862)" class="st16 st11 st14">onitoring</text>
			</g>
		</g>
		<g class="st15">
			<g>
				<text transform="matrix(0 -1 1 0 505.3796 129.8345)" class="st7 st11 st14">R</text>
				<text transform="matrix(0 -1 1 0 505.3796 122.0542)" class="st7 st11 st14">epo</text>
				<text transform="matrix(0 -1 1 0 505.3796 100.2349)" class="st7 st11 st14">r</text>
				<text transform="matrix(0 -1 1 0 505.3796 95.6948)" class="st7 st11 st14">t</text>
			</g>
		</g>
		<g class="st15">
			<g>
				<text transform="matrix(1 0 0 1 532.1169 116.8408)" class="st7 st11 st14">I</text>
				<text transform="matrix(1 0 0 1 535.6169 116.8408)" class="st7 st11 st14">n</text>
				<text transform="matrix(1 0 0 1 542.9069 116.8408)" class="st7 st11 st14">vestig</text>
				<text transform="matrix(1 0 0 1 577.2468 116.8408)" class="st7 st11 st14">a</text>
				<text transform="matrix(1 0 0 1 583.7971 116.8408)" class="st7 st11 st14">tive</text>
			</g>
		</g>
		<g class="st15">
			<g>
				<text transform="matrix(0 -1 1 0 523.5593 277.4819)" class="st7 st11 st14">M</text>
				<text transform="matrix(0 -1 1 0 523.5593 267.3315)" class="st7 st11 st14">onitoring</text>
			</g>
		</g>
		<g class="st15">
			<g>
				<text transform="matrix(0 -1 1 0 585.2585 292.4946)" class="st7 st11 st14">Social cohesion</text>
			</g>
		</g>
		<g class="st15">
			<g>
				<text transform="matrix(1 0 0 1 340.5505 339.287)" class="st16 st11 st17">M</text>
				<text transform="matrix(1 0 0 1 349.0105 339.287)" class="st16 st11 st17">emor</text>
				<text transform="matrix(1 0 0 1 374.5105 339.287)" class="st16 st11 st17">y  </text>
				<text transform="matrix(1 0 0 1 350.2204 351.287)" class="st16 st11 st17">doc.</text>
				<text transform="matrix(1 0 0 1 369.9406 351.287)" class="st16 st11 st17"> </text>
			</g>
		</g>
		<g class="st15">
			<g>
				<text transform="matrix(1 0 0 1 411.6872 339.287)" class="st16 st11 st14">Social </text>
				<text transform="matrix(1 0 0 1 403.1374 353.687)" class="st16 st11 st14">cohesion</text>
				<text transform="matrix(1 0 0 1 455.0774 353.687)" class="st16 st11 st14"> </text>
			</g>
		</g>
		<g class="st15">
			<g>
				<text transform="matrix(1 0 0 1 484.3044 347.6444)" class="st16 st11 st14">R</text>
				<text transform="matrix(1 0 0 1 492.0847 347.6444)" class="st16 st11 st14">epo</text>
				<text transform="matrix(1 0 0 1 513.9045 347.6444)" class="st16 st11 st14">r</text>
				<text transform="matrix(1 0 0 1 518.4445 347.6444)" class="st16 st11 st14">t</text>
			</g>
		</g>
		<g class="st15">
			<g>
				<text transform="matrix(1 0 0 1 540.3454 347.6425)" class="st16 st11 st14">I</text>
				<text transform="matrix(1 0 0 1 543.8454 347.6425)" class="st16 st11 st14">n</text>
				<text transform="matrix(1 0 0 1 551.1354 347.6425)" class="st16 st11 st14">vestig</text>
				<text transform="matrix(1 0 0 1 585.4753 347.6425)" class="st16 st11 st14">a</text>
				<text transform="matrix(1 0 0 1 592.0456 347.6425)" class="st16 st11 st14">tive</text>
			</g>
		</g>
		<g class="st15">
			<g>
				<text transform="matrix(0 -1 1 0 362.2351 422.7622)" class="st7 st11 st14">R</text>
				<text transform="matrix(0 -1 1 0 362.2351 414.9819)" class="st7 st11 st14">epo</text>
				<text transform="matrix(0 -1 1 0 362.2351 393.1626)" class="st7 st11 st14">r</text>
				<text transform="matrix(0 -1 1 0 362.2351 388.6226)" class="st7 st11 st14">t</text>
			</g>
		</g>
		<g class="st15">
			<g>
				<text transform="matrix(1 0 0 1 401.1911 406.9716)" class="st7 st11 st14">I</text>
				<text transform="matrix(1 0 0 1 404.6911 406.9716)" class="st7 st11 st14">n</text>
				<text transform="matrix(1 0 0 1 411.9812 406.9716)" class="st7 st11 st14">vestig</text>
				<text transform="matrix(1 0 0 1 446.321 406.9716)" class="st7 st11 st14">a</text>
				<text transform="matrix(1 0 0 1 452.8913 406.9716)" class="st7 st11 st14">tive</text>
			</g>
		</g>
		<g class="st15">
			<g>
				<text transform="matrix(1 0 0 1 374.3425 463.3622)" class="st16 st11 st14">R</text>
				<text transform="matrix(1 0 0 1 382.1325 463.3622)" class="st16 st11 st14">epo</text>
				<text transform="matrix(1 0 0 1 403.9626 463.3622)" class="st16 st11 st14">r</text>
				<text transform="matrix(1 0 0 1 408.4924 463.3622)" class="st16 st11 st14">t</text>
			</g>
		</g>
		<g class="st15">
			<g>
				<text transform="matrix(1 0 0 1 455.4841 463.3622)" class="st16 st11 st14">I</text>
				<text transform="matrix(1 0 0 1 458.9841 463.3622)" class="st16 st11 st14">n</text>
				<text transform="matrix(1 0 0 1 466.2741 463.3622)" class="st16 st11 st14">vest.</text>
			</g>
		</g>
		<g>
			<g>
				<g>
					<text transform="matrix(1 0 0 1 507.1491 406.9716)" class="st16 st18 st19">Report</text>
				</g>
			</g>
		</g>
		<g class="st15">
			<g>
				<text transform="matrix(0 -1 1 0 528.7097 478.1919)" class="st7 st11 st14">I</text>
				<text transform="matrix(0 -1 1 0 528.7097 474.6919)" class="st7 st11 st14">n</text>
				<text transform="matrix(0 -1 1 0 528.7097 467.4019)" class="st7 st11 st14">vestig.</text>
			</g>
		</g>
		<g class="st15">
			<g>
				<text transform="matrix(1 0 0 1 564.8513 404.1395)" class="st16 st11 st14">M</text>
				<text transform="matrix(1 0 0 1 575.0012 404.1395)" class="st16 st11 st14">emor</text>
				<text transform="matrix(1 0 0 1 605.6013 404.1395)" class="st16 st11 st14">y</text>
				<text transform="matrix(1 0 0 1 573.9811 418.5394)" class="st16 st11 st14">doc. </text>
			</g>
		</g>
		<g class="st15">
			<g>
				<text transform="matrix(1 0 0 1 563.4753 459.6962)" class="st7 st11 st14">M</text>
				<text transform="matrix(1 0 0 1 573.6252 459.6962)" class="st7 st11 st14">emor</text>
				<text transform="matrix(1 0 0 1 604.2253 459.6962)" class="st7 st11 st14">y</text>
				<text transform="matrix(1 0 0 1 563.4753 474.0962)" class="st7 st11 st14">doc. </text>
			</g>
		</g>
	</g>
	<text transform="matrix(1 0 0 1 2.7214 11.8672)" class="st20 st21">TRANSPARENCY AND ACCOUNTABILITY</text>
	<text transform="matrix(1 0 0 1 334.1013 11.8672)" class="st20 st21">POLICYMAKING</text>
	<text transform="matrix(1 0 0 1 2.1618 499.4393)" class="st20 st21">HUMAN RIGHTS</text>
	<text transform="matrix(1 0 0 1 558.1052 499.4393)" class="st20 st21">MEMORY</text>
	<text transform="matrix(1 0 0 1 338.2087 499.4393)" class="st20 st21">SURVEILLANCE</text>
	<rect x="329.31" y="576.85" class="st10" width="305.83" height="90.51"/>
	<text transform="matrix(1 0 0 1 329.3054 588.5292)" class="st11 st12 st13"> </text>
	<text transform="matrix(1 0 0 1 351.3654 588.5292)" class="st11 st12">C</text>
	<text transform="matrix(1 0 0 1 362.3454 588.5292)" class="st11 st12">row</text>
	<text transform="matrix(1 0 0 1 391.5754 588.5292)" class="st11 st12">dsou</text>
	<text transform="matrix(1 0 0 1 429.7155 588.5292)" class="st11 st12">r</text>
	<text transform="matrix(1 0 0 1 436.0056 588.5292)" class="st11 st12">ced</text>
	<text transform="matrix(1 0 0 1 329.3054 612.5292)" class="st11 st12 st13"> </text>
	<text transform="matrix(1 0 0 1 351.3654 612.5292)" class="st11 st12">Whistle-bl</text>
	<text transform="matrix(1 0 0 1 433.3654 612.5292)" class="st11 st12">o</text>
	<text transform="matrix(1 0 0 1 442.8357 612.5292)" class="st11 st12">w</text>
	<text transform="matrix(1 0 0 1 456.2956 612.5292)" class="st11 st12">e</text>
	<text transform="matrix(1 0 0 1 465.5857 612.5292)" class="st11 st12">r</text>
	<text transform="matrix(1 0 0 1 471.7854 612.5292)" class="st11 st12">s</text>
	<text transform="matrix(1 0 0 1 329.3054 636.5292)" class="st11 st12 st13"> </text>
	<text transform="matrix(1 0 0 1 351.3654 636.5292)" class="st11 st12">Governme</text>
	<text transform="matrix(1 0 0 1 431.2654 636.5292)" class="st11 st12">n</text>
	<text transform="matrix(1 0 0 1 441.0754 636.5292)" class="st11 st12">ta</text>
	<text transform="matrix(1 0 0 1 456.8357 636.5292)" class="st11 st12">l</text>
	<text transform="matrix(1 0 0 1 461.1653 636.5292)" class="st11 st12"> but n</text>
	<text transform="matrix(1 0 0 1 508.6755 636.5292)" class="st11 st12">o</text>
	<text transform="matrix(1 0 0 1 518.2751 636.5292)" class="st11 st12">t public d</text>
	<text transform="matrix(1 0 0 1 594.2053 636.5292)" class="st11 st12">a</text>
	<text transform="matrix(1 0 0 1 602.9655 636.5292)" class="st11 st12">ta</text>
	<text transform="matrix(1 0 0 1 0.9743 554.9481)" class="st20 st21">LEGEND</text>
</g>
</svg>
