<svg enable-background="new 0 0 635.14 679.85" viewBox="0 0 635.14 679.85" xml:space="preserve" xmlns="http://www.w3.org/2000/svg"><path d="m2.15 21.43h43.89v52.66h-43.89z" fill="#ee3938"/><path d="m49.8 21.43h282.14v52.66h-282.14z" fill="#f1c6c0"/><path d="m49.8 21.43h282.14v52.66h-282.14z" fill="none" stroke="#fff" stroke-width=".5392"/><path d="m2.15 76.87h236.39v140.72h-236.39z" fill="#a6a8ab"/><path d="m2.15 76.87h236.39v140.72h-236.39z" fill="none" stroke="#fff" stroke-width=".5392"/><path d="m2.15 218.52h46.28v53.56h-46.28z" fill="#a6a8ab"/><path d="m2.15 218.52h46.28v53.56h-46.28z" fill="none" stroke="#fff" stroke-width=".5392"/><path d="m49.68 218.52h141.34v53.56h-141.34z" fill="#a6a8ab"/><path d="m49.68 218.52h141.34v53.56h-141.34z" fill="none" stroke="#fff" stroke-width=".5392"/><path d="m192.27 218.52h46.28v53.56h-46.28z" fill="#a6a8ab"/><path d="m192.27 218.52h46.28v53.56h-46.28z" fill="none" stroke="#fff" stroke-width=".5392"/><path d="m242.31 76.87h89.63v138.95h-89.63z"/><path d="m242.31 216.74h89.63v27.05h-89.63z"/><path d="m242.31 246.57h89.63v25.5h-89.63z" fill="#5e6264"/><path d="m242.31 246.57h89.63v25.5h-89.63z" fill="none" stroke="#fff" stroke-width=".5392"/><path d="m2.15 276.71h79.85v30.26h-79.85z"/><path d="m2.15 307.9h79.85v30.26h-79.85z"/><path d="m83.25 276.71h79.85v61.46h-79.85z"/><path d="m164.35 276.71h39.3v61.46h-39.3z"/><path d="m2.15 340.95h49.43v48.61h-49.43z" fill="#f1c6c0"/><path d="m2.15 340.95h49.43v48.61h-49.43z" fill="none" stroke="#fff" stroke-width=".5392"/><path d="m52.84 340.95h100.12v48.61h-100.12z" fill="#f1c6c0"/><path d="m52.84 340.95h100.12v48.61h-100.12z" fill="none" stroke="#fff" stroke-width=".5392"/><path d="m154.21 340.95h49.44v48.61h-49.44z" fill="#f1c6c0"/><path d="m154.21 340.95h49.44v48.61h-49.44z" fill="none" stroke="#fff" stroke-width=".5392"/><path d="m2.15 392.34h85.64v28.43h-85.64z" fill="#a6a8ab"/><path d="m2.15 392.34h85.64v28.43h-85.64z" fill="none" stroke="#fff" stroke-width=".5392"/><path d="m2.15 421.7h85.64v57.79h-85.64z" fill="#a6a8ab"/><path d="m2.15 421.7h85.64v57.79h-85.64z" fill="none" stroke="#fff" stroke-width=".5392"/><path d="m89.04 392.34h114.61v65.13h-114.61z" fill="#a6a8ab"/><path d="m89.04 392.34h114.61v65.13h-114.61z" fill="none" stroke="#fff" stroke-width=".5392"/><path d="m89.04 458.39h114.61v21.09h-114.61z" fill="#a6a8ab"/><path d="m89.04 458.39h114.61v21.09h-114.61z" fill="none" stroke="#fff" stroke-width=".5392"/><path d="m207.41 276.71h40.67v121.02h-40.67z" fill="#5e6264"/><path d="m207.41 276.71h40.67v121.02h-40.67z" fill="none" stroke="#fff" stroke-width=".5392"/><path d="m249.34 276.71h82.6v121.02h-82.6z" fill="#5e6264"/><path d="m249.34 276.71h82.6v121.02h-82.6z" fill="none" stroke="#fff" stroke-width=".5392"/><path d="m207.41 398.65h61.64v39.72h-61.64z" fill="#5e6264"/><path d="m207.41 398.65h61.64v39.72h-61.64z" fill="none" stroke="#fff" stroke-width=".5392"/><path d="m270.3 398.65h61.64v39.72h-61.64z" fill="#5e6264"/><path d="m270.3 398.65h61.64v39.72h-61.64z" fill="none" stroke="#fff" stroke-width=".5392"/><path d="m207.41 441.16h60.38v38.33h-60.38z" fill="#c9c9cb"/><path d="m207.41 441.16h60.38v38.33h-60.38z" fill="none" stroke="#fff" stroke-width=".5392"/><path d="m271.56 441.16h60.38v38.33h-60.38z" fill="#ee3938"/><path d="m338.21 21.43h68.04v34.04h-68.04z" fill="#b57972"/><path d="m338.21 21.43h68.04v34.04h-68.04z" fill="none" stroke="#fff" stroke-width=".5392"/><path d="m410.01 21.43h69.71v34.04h-69.71z"/><path d="m480.97 21.43h69.71v34.04h-69.71z"/><path d="m551.94 21.43h69.71v34.04h-69.71z"/><path d="m338.21 58.25h150.09v101.43h-150.09z" fill="#a6a8ab"/><path d="m338.21 58.25h150.09v101.43h-150.09z" fill="none" stroke="#fff" stroke-width=".5392"/><path d="m338.21 160.6h150.09v101.43h-150.09z" fill="#a6a8ab"/><path d="m338.21 160.6h150.09v101.43h-150.09z" fill="none" stroke="#fff" stroke-width=".5392"/><path d="m338.21 262.96h150.09v50.25h-150.09z" fill="#a6a8ab"/><path d="m338.21 262.96h150.09v50.25h-150.09z" fill="none" stroke="#fff" stroke-width=".5392"/><path d="m492.06 58.25h20.55v117.17h-20.55z" fill="#5e6264"/><path d="m492.06 58.25h20.55v117.17h-20.55z" fill="none" stroke="#fff" stroke-width=".5392"/><path d="m513.87 58.25h107.77v117.17h-107.77z" fill="#5e6264"/><path d="m513.87 58.25h107.77v117.17h-107.77z" fill="none" stroke="#fff" stroke-width=".5392"/><path d="m492.06 176.35h54.82v136.86h-54.82z" fill="#5e6264"/><path d="m492.06 176.35h54.82v136.86h-54.82z" fill="none" stroke="#fff" stroke-width=".5392"/><path d="m548.14 176.35h73.51v136.86h-73.51z" fill="#5e6264"/><path d="m548.14 176.35h73.51v136.86h-73.51z" fill="none" stroke="#fff" stroke-width=".5392"/><path d="m338.21 315.99h46.19v52.45h-46.19z" fill="#f1c6c0"/><path d="m338.21 315.99h46.19v52.45h-46.19z" fill="none" stroke="#fff" stroke-width=".5392"/><path d="m385.66 315.99h93.64v52.45h-93.64z" fill="#f1c6c0"/><path d="m385.66 315.99h93.64v52.45h-93.64z" fill="none" stroke="#fff" stroke-width=".5392"/><path d="m480.55 315.99h46.19v52.45h-46.19z" fill="#f1c6c0"/><path d="m480.55 315.99h46.19v52.45h-46.19z" fill="none" stroke="#fff" stroke-width=".5392"/><path d="m528 315.99h93.64v52.45h-93.64z" fill="#f1c6c0"/><path d="m528 315.99h93.64v52.45h-93.64z" fill="none" stroke="#fff" stroke-width=".5392"/><path d="m338.21 373.08h39.88v59.61h-39.88z" fill="#5e6264"/><path d="m338.21 373.08h39.88v59.61h-39.88z" fill="none" stroke="#fff" stroke-width=".5392"/><path d="m379.34 373.08h122.15v59.61h-122.15z" fill="#5e6264"/><path d="m379.34 373.08h122.15v59.61h-122.15z" fill="none" stroke="#fff" stroke-width=".5392"/><path d="m338.21 435.47h108.44v44.02h-108.44z" fill="#f1c6c0"/><path d="m338.21 435.47h108.44v44.02h-108.44z" fill="none" stroke="#fff" stroke-width=".5392"/><path d="m447.9 435.47h53.59v44.02h-53.59z" fill="#f1c6c0"/><path d="m447.9 435.47h53.59v44.02h-53.59z" fill="none" stroke="#fff" stroke-width=".5392"/><path d="m505.25 373.08h43.96v51.81h-43.96z" fill="#a6a8ab"/><path d="m505.25 373.08h43.96v51.81h-43.96z" fill="none" stroke="#fff" stroke-width=".5392"/><path d="m505.25 427.67h43.96v51.81h-43.96z"/><path d="m555.49 373.08h66.16v70.01h-66.16z" fill="#f1c6c0"/><path d="m555.49 373.08h66.16v70.01h-66.16z" fill="none" stroke="#fff" stroke-width=".5392"/><path d="m555.49 445.87h66.16v33.62h-66.16z" fill="#5e6264"/><path d="m555.49 445.87h66.16v33.62h-66.16z" fill="none" stroke="#fff" stroke-width=".5392"/><path d="m0 270.19h338.21v7.97h-338.21z" fill="#fff"/><path d="m332.38 366.73h289.26v7.97h-289.26z" fill="#fff"/><path d="m331.04 15.83h7.97v464.26h-7.97z" fill="#fff"/><path d="m547.63 366.92h7.97v113.17h-7.97z" fill="#fff"/><path d="m8.93 612.56h-.45c-3.41 0-6.18-2.77-6.18-6.18s2.77-6.18 6.18-6.18h.45c3.41 0 6.17 2.77 6.17 6.18s-2.76 6.18-6.17 6.18" fill="#5e6264"/><path d="m337.43 612.56h-.45c-3.41 0-6.18-2.76-6.18-6.18 0-3.41 2.77-6.17 6.18-6.17h.45c3.41 0 6.17 2.76 6.17 6.17.01 3.41-2.76 6.18-6.17 6.18" fill="#ee3938"/><path d="m8.93 591.21h-.45c-3.41 0-6.18-2.76-6.18-6.18 0-3.41 2.77-6.17 6.18-6.17h.45c3.41 0 6.17 2.76 6.17 6.17.01 3.42-2.76 6.18-6.17 6.18"/><path d="m8.93 636.66h-.45c-3.41 0-6.18-2.76-6.18-6.17s2.77-6.18 6.18-6.18h.45c3.41 0 6.17 2.76 6.17 6.18.01 3.4-2.76 6.17-6.17 6.17" fill="#919291"/><path d="m8.93 660.33h-.45c-3.41 0-6.18-2.76-6.18-6.18 0-3.41 2.77-6.18 6.18-6.18h.45c3.41 0 6.17 2.77 6.17 6.18.01 3.41-2.76 6.18-6.17 6.18" fill="#c9c9cb"/><path d="m337.43 591.21h-.45c-3.41 0-6.18-2.76-6.18-6.17s2.77-6.18 6.18-6.18h.45c3.41 0 6.17 2.77 6.17 6.18.01 3.41-2.76 6.17-6.17 6.17" fill="#f1c6c0"/><path d="m337.43 636.66h-.45c-3.41 0-6.18-2.76-6.18-6.18 0-3.41 2.77-6.17 6.18-6.17h.45c3.41 0 6.17 2.76 6.17 6.17.01 3.41-2.76 6.18-6.17 6.18" fill="#b57972"/><path d="m1.01 560.71h59.72" fill="none" stroke="#000" stroke-miterlimit="10"/><path d="m1.97 576.85h281.26v103h-281.26z" fill="none"/><g font-family="'Work Sans'"><text font-size="16" letter-spacing="16" transform="translate(1.9743 588.5293)"></text><text font-size="16" transform="translate(24.0344 588.5293)">App</text><text font-size="16" transform="translate(54.7541 588.5293)">r</text><text font-size="16" transform="translate(61.0441 588.5293)">opri</text><text font-size="16" transform="translate(91.6345 588.5293)">a</text><text font-size="16" transform="translate(100.3845 588.5293)">ting d</text><text font-size="16" transform="translate(145.5642 588.5293)">a</text><text font-size="16" transform="translate(154.3044 588.5293)">ta</text><text font-size="16" letter-spacing="16" transform="translate(1.9743 612.5293)"></text><text font-size="16" transform="translate(24.0344 612.5293)">Own research</text><text font-size="16" letter-spacing="16" transform="translate(1.9743 636.5293)"></text><text font-size="16" transform="translate(24.0344 636.5293)">Existing data</text><text font-size="16" letter-spacing="16" transform="translate(1.9743 660.5293)"></text><text font-size="16" transform="translate(24.0344 660.5293)">Collabo</text><text font-size="16" transform="translate(83.3942 660.5293)">r</text><text font-size="16" transform="translate(89.7141 660.5293)">a</text><text font-size="16" transform="translate(98.444 660.5293)">tion</text><text font-size="16" transform="translate(129.0344 660.5293)"></text><text font-size="16" transform="translate(134.1442 660.5293)">with o</text><text font-size="16" transform="translate(183.8845 660.5293)">r</text><text font-size="16" transform="translate(190.0144 660.5293)">ganis</text><text font-size="16" transform="translate(230.444 660.5293)">a</text><text font-size="16" transform="translate(239.194 660.5293)">tions </text><text fill="#fff" font-size="12" transform="translate(3.906 54.5029)">Report</text><text fill="#231f20" font-size="12" transform="translate(163.3747 54.5029)">M</text><text fill="#231f20" font-size="12" transform="translate(173.5246 54.5029)">onitoring</text><text fill="#231f20" font-size="12" transform="translate(96.2976 153.9746)">M</text><text fill="#231f20" font-size="12" transform="translate(106.4475 153.9746)">onitoring</text><text fill="#231f20" font-size="10" transform="translate(6.3962 243.0243)">Memory</text><text fill="#231f20" font-size="10" transform="translate(6.3962 255.0243)">doc. </text><text fill="#231f20" font-size="12" transform="translate(102.9001 248.1698)">R</text><text fill="#231f20" font-size="12" transform="translate(110.6799 248.1698)">epo</text><text fill="#231f20" font-size="12" transform="translate(132.5002 248.1698)">r</text><text fill="#231f20" font-size="12" transform="translate(137.0402 248.1698)">t</text><text fill="#231f20" font-size="12" transform="translate(195.3259 248.1698)">Invest.</text><text fill="#fff" font-size="12" transform="translate(256.2448 154.1621)">M</text><text fill="#fff" font-size="12" transform="translate(266.3947 154.1621)">onitoring</text><text fill="#fff" font-size="12" transform="translate(251.9616 233.6718)">I</text><text fill="#fff" font-size="12" transform="translate(255.4616 233.6718)">n</text><text fill="#fff" font-size="12" transform="translate(262.7517 233.6718)">vestig</text><text fill="#fff" font-size="12" transform="translate(297.0915 233.6718)">a</text><text fill="#fff" font-size="12" transform="translate(303.6618 233.6718)">tive</text><text fill="#fff" font-size="12" transform="translate(270.3025 262.9628)">R</text><text fill="#fff" font-size="12" transform="translate(278.0827 262.9628)">epo</text><text fill="#fff" font-size="12" transform="translate(299.9026 262.9628)">r</text><text fill="#fff" font-size="12" transform="translate(304.4426 262.9628)">t</text><text fill="#fff" font-size="12" transform="translate(8.1198 288.579)">Social</text><text fill="#fff" font-size="12" transform="translate(8.1198 302.979)">cohesion</text><text fill="#fff" font-size="12" transform="translate(6.8435 327.4393)">I</text><text fill="#fff" font-size="12" transform="translate(10.3435 327.4393)">n</text><text fill="#fff" font-size="12" transform="translate(17.6335 327.4393)">vestig</text><text fill="#fff" font-size="12" transform="translate(51.9733 327.4393)">.</text><text fill="#fff" font-size="12" transform="translate(98.8142 308.0673)">M</text><text fill="#fff" font-size="12" transform="translate(108.9641 308.0673)">emor</text><text fill="#fff" font-size="12" transform="translate(139.5642 308.0673)">y</text><text fill="#fff" font-size="12" transform="translate(98.8142 322.4673)">doc.</text><text fill="#fff" font-size="12" transform="matrix(0 -1 1 0 184.0007 333.6313)">M</text><text fill="#fff" font-size="12" transform="matrix(0 -1 1 0 184.0007 323.481)">onitor.</text><text fill="#231f20" font-size="10" transform="translate(5.5573 361.4803)">Soc. </text><text fill="#231f20" font-size="10" transform="translate(5.5573 373.4803)">cohesion </text><text fill="#231f20" font-size="12" transform="translate(63.6189 368.4452)">M</text><text fill="#231f20" font-size="12" transform="translate(73.7688 368.4452)">emor</text><text fill="#231f20" font-size="12" transform="translate(104.3689 368.4452)">y</text><text fill="#231f20" font-size="12" transform="translate(110.4987 368.4452)"> doc.</text><text fill="#231f20" font-size="12" transform="translate(164.3532 368.6718)">I</text><text fill="#231f20" font-size="12" transform="translate(167.8532 368.6718)">n</text><text fill="#231f20" font-size="12" transform="translate(175.1433 368.6718)">v</text><text fill="#231f20" font-size="12" transform="translate(180.5031 368.6718)">.</text><text fill="#231f20" font-size="10" transform="translate(8.9392 410.3114)">Soc. cohesion</text><text fill="#231f20" font-size="12" transform="translate(5.9401 454.2186)">I</text><text fill="#231f20" font-size="12" transform="translate(9.4401 454.2186)">n</text><text fill="#231f20" font-size="12" transform="translate(16.7302 454.2186)">vestig</text><text fill="#231f20" font-size="12" transform="translate(51.07 454.2186)">a</text><text fill="#231f20" font-size="12" transform="translate(57.6403 454.2186)">tive</text><text fill="#231f20" font-size="12" transform="translate(127.8376 428.4354)">R</text><text fill="#231f20" font-size="12" transform="translate(135.6174 428.4354)">epo</text><text fill="#231f20" font-size="12" transform="translate(157.4377 428.4354)">r</text><text fill="#231f20" font-size="12" transform="translate(161.9777 428.4354)">t</text><text fill="#231f20" font-size="12" transform="translate(110.8064 472.3427)">M</text><text fill="#231f20" font-size="12" transform="translate(120.9563 472.3427)">emor</text><text fill="#231f20" font-size="12" transform="translate(151.5564 472.3427)">y</text><text fill="#231f20" font-size="12" transform="translate(157.6862 472.3427)"> doc.</text><text fill="#fff" font-size="12" transform="matrix(0 -1 1 0 232.8317 383.5054)">Social cohesion</text><text fill="#fff" font-size="12" transform="translate(253.4958 331.8915)">I</text><text fill="#fff" font-size="12" transform="translate(256.9958 331.8915)">n</text><text fill="#fff" font-size="12" transform="translate(264.2859 331.8915)">vestig</text><text fill="#fff" font-size="12" transform="translate(298.6257 331.8915)">a</text><text fill="#fff" font-size="12" transform="translate(305.196 331.8915)">tive</text><text fill="#fff" font-size="12" transform="translate(217.1638 422.9218)">R</text><text fill="#fff" font-size="12" transform="translate(224.944 422.9218)">epo</text><text fill="#fff" font-size="12" transform="translate(246.7639 422.9218)">r</text><text fill="#fff" font-size="12" transform="translate(251.3039 422.9218)">t</text><text fill="#fff" font-size="12" transform="translate(275.5857 418.5175)">M</text><text fill="#fff" font-size="12" transform="translate(285.7356 418.5175)">emor</text><text fill="#fff" font-size="12" transform="translate(316.3357 418.5175)">y</text><text fill="#fff" font-size="12" transform="translate(275.5857 432.9175)">doc. </text><text fill="#231f20" font-size="12" transform="translate(215.1306 460.1219)">M</text><text fill="#231f20" font-size="12" transform="translate(225.2805 460.1219)">emor</text><text fill="#231f20" font-size="12" transform="translate(255.8806 460.1219)">y</text><text fill="#231f20" font-size="12" transform="translate(262.0105 460.1219)"></text><text fill="#231f20" font-size="12" transform="translate(215.1306 474.522)">doc.</text><text fill="#fff" font-size="13.2766" transform="translate(280.5105 464.2069)">Invest.</text><text fill="#fff" font-size="13.2766" transform="translate(350.7243 41.7852)">Invest.</text><text fill="#fff" font-size="12" transform="translate(425.4255 41.7852)">R</text><text fill="#fff" font-size="12" transform="translate(433.2155 41.7852)">epo</text><text fill="#fff" font-size="12" transform="translate(455.0456 41.7852)">r</text><text fill="#fff" font-size="12" transform="translate(459.5754 41.7852)">t</text><text fill="#fff" font-size="12" transform="translate(486.4226 34.4395)">M</text><text fill="#fff" font-size="12" transform="translate(496.5725 34.4395)">emory </text><text fill="#fff" font-size="12" transform="translate(486.4226 48.8394)">doc.</text><text fill="#fff" font-size="12" transform="translate(565.9909 42.2002)">I</text><text fill="#fff" font-size="12" transform="translate(569.4909 42.2002)">n</text><text fill="#fff" font-size="12" transform="translate(576.7809 42.2002)">vest.</text><text fill="#231f20" font-size="12" transform="translate(396.6277 116.8389)">R</text><text fill="#231f20" font-size="12" transform="translate(404.4079 116.8389)">epo</text><text fill="#231f20" font-size="12" transform="translate(426.2278 116.8389)">r</text><text fill="#231f20" font-size="12" transform="translate(430.7678 116.8389)">t</text><text fill="#231f20" font-size="12" transform="translate(379.53 218.7665)">I</text><text fill="#231f20" font-size="12" transform="translate(383.03 218.7665)">n</text><text fill="#231f20" font-size="12" transform="translate(390.32 218.7665)">vestig</text><text fill="#231f20" font-size="12" transform="translate(424.6599 218.7665)">a</text><text fill="#231f20" font-size="12" transform="translate(431.2302 218.7665)">tive</text><text fill="#231f20" font-size="12" transform="translate(386.3005 292.4862)">M</text><text fill="#231f20" font-size="12" transform="translate(396.4504 292.4862)">onitoring</text><text fill="#fff" font-size="12" transform="matrix(0 -1 1 0 505.3796 129.8345)">R</text><text fill="#fff" font-size="12" transform="matrix(0 -1 1 0 505.3796 122.0542)">epo</text><text fill="#fff" font-size="12" transform="matrix(0 -1 1 0 505.3796 100.2349)">r</text><text fill="#fff" font-size="12" transform="matrix(0 -1 1 0 505.3796 95.6948)">t</text><text fill="#fff" font-size="12" transform="translate(532.1169 116.8408)">I</text><text fill="#fff" font-size="12" transform="translate(535.6169 116.8408)">n</text><text fill="#fff" font-size="12" transform="translate(542.9069 116.8408)">vestig</text><text fill="#fff" font-size="12" transform="translate(577.2468 116.8408)">a</text><text fill="#fff" font-size="12" transform="translate(583.7971 116.8408)">tive</text><text fill="#fff" font-size="12" transform="matrix(0 -1 1 0 523.5593 277.4819)">M</text><text fill="#fff" font-size="12" transform="matrix(0 -1 1 0 523.5593 267.3315)">onitoring</text><text fill="#fff" font-size="12" transform="matrix(0 -1 1 0 585.2585 292.4946)">Social cohesion</text><text fill="#231f20" font-size="10" transform="translate(340.5505 339.287)">M</text><text fill="#231f20" font-size="10" transform="translate(349.0105 339.287)">emor</text><text fill="#231f20" font-size="10" transform="translate(374.5105 339.287)">y  </text><text fill="#231f20" font-size="10" transform="translate(350.2204 351.287)">doc.</text><text fill="#231f20" font-size="10" transform="translate(369.9406 351.287)"></text><text fill="#231f20" font-size="12" transform="translate(411.6872 339.287)">Social </text><text fill="#231f20" font-size="12" transform="translate(403.1374 353.687)">cohesion</text><text fill="#231f20" font-size="12" transform="translate(455.0774 353.687)"></text><text fill="#231f20" font-size="12" transform="translate(484.3044 347.6444)">R</text><text fill="#231f20" font-size="12" transform="translate(492.0847 347.6444)">epo</text><text fill="#231f20" font-size="12" transform="translate(513.9045 347.6444)">r</text><text fill="#231f20" font-size="12" transform="translate(518.4445 347.6444)">t</text><text fill="#231f20" font-size="12" transform="translate(540.3454 347.6425)">I</text><text fill="#231f20" font-size="12" transform="translate(543.8454 347.6425)">n</text><text fill="#231f20" font-size="12" transform="translate(551.1354 347.6425)">vestig</text><text fill="#231f20" font-size="12" transform="translate(585.4753 347.6425)">a</text><text fill="#231f20" font-size="12" transform="translate(592.0456 347.6425)">tive</text><text fill="#fff" font-size="12" transform="matrix(0 -1 1 0 362.2351 422.7622)">R</text><text fill="#fff" font-size="12" transform="matrix(0 -1 1 0 362.2351 414.9819)">epo</text><text fill="#fff" font-size="12" transform="matrix(0 -1 1 0 362.2351 393.1626)">r</text><text fill="#fff" font-size="12" transform="matrix(0 -1 1 0 362.2351 388.6226)">t</text><text fill="#fff" font-size="12" transform="translate(401.1911 406.9716)">I</text><text fill="#fff" font-size="12" transform="translate(404.6911 406.9716)">n</text><text fill="#fff" font-size="12" transform="translate(411.9812 406.9716)">vestig</text><text fill="#fff" font-size="12" transform="translate(446.321 406.9716)">a</text><text fill="#fff" font-size="12" transform="translate(452.8913 406.9716)">tive</text><text fill="#231f20" font-size="12" transform="translate(374.3425 463.3622)">R</text><text fill="#231f20" font-size="12" transform="translate(382.1325 463.3622)">epo</text><text fill="#231f20" font-size="12" transform="translate(403.9626 463.3622)">r</text><text fill="#231f20" font-size="12" transform="translate(408.4924 463.3622)">t</text><text fill="#231f20" font-size="12" transform="translate(455.4841 463.3622)">I</text><text fill="#231f20" font-size="12" transform="translate(458.9841 463.3622)">n</text><text fill="#231f20" font-size="12" transform="translate(466.2741 463.3622)">vest.</text><text fill="#231f20" font-size="13.2766" transform="translate(507.1491 406.9716)">Report</text><text fill="#fff" font-size="12" transform="matrix(0 -1 1 0 528.7097 478.1919)">I</text><text fill="#fff" font-size="12" transform="matrix(0 -1 1 0 528.7097 474.6919)">n</text><text fill="#fff" font-size="12" transform="matrix(0 -1 1 0 528.7097 467.4019)">vestig.</text><text fill="#231f20" font-size="12" transform="translate(564.8513 404.1395)">M</text><text fill="#231f20" font-size="12" transform="translate(575.0012 404.1395)">emor</text><text fill="#231f20" font-size="12" transform="translate(605.6013 404.1395)">y</text><text fill="#231f20" font-size="12" transform="translate(573.9811 418.5394)">doc. </text><text fill="#fff" font-size="12" transform="translate(563.4753 459.6962)">M</text><text fill="#fff" font-size="12" transform="translate(573.6252 459.6962)">emor</text><text fill="#fff" font-size="12" transform="translate(604.2253 459.6962)">y</text><text fill="#fff" font-size="12" transform="translate(563.4753 474.0962)">doc. </text><text font-size="14.2979" font-weight="700" transform="translate(2.7214 11.8672)">TRANSPARENCY AND ACCOUNTABILITY</text><text font-size="14.2979" font-weight="700" transform="translate(334.1013 11.8672)">POLICYMAKING</text><text font-size="14.2979" font-weight="700" transform="translate(2.1618 499.4393)">HUMAN RIGHTS</text><text font-size="14.2979" font-weight="700" transform="translate(558.1052 499.4393)">MEMORY</text><text font-size="14.2979" font-weight="700" transform="translate(338.2087 499.4393)">SURVEILLANCE</text></g><path d="m329.31 576.85h305.83v90.51h-305.83z" fill="none"/><text font-family="'Work Sans'" font-size="16" letter-spacing="16" transform="translate(329.3054 588.5292)"></text><text font-family="'Work Sans'" font-size="16" transform="translate(351.3654 588.5292)">C</text><text font-family="'Work Sans'" font-size="16" transform="translate(362.3454 588.5292)">row</text><text font-family="'Work Sans'" font-size="16" transform="translate(391.5754 588.5292)">dsou</text><text font-family="'Work Sans'" font-size="16" transform="translate(429.7155 588.5292)">r</text><text font-family="'Work Sans'" font-size="16" transform="translate(436.0056 588.5292)">ced</text><text font-family="'Work Sans'" font-size="16" letter-spacing="16" transform="translate(329.3054 612.5292)"></text><text font-family="'Work Sans'" font-size="16" transform="translate(351.3654 612.5292)">Whistle-bl</text><text font-family="'Work Sans'" font-size="16" transform="translate(433.3654 612.5292)">o</text><text font-family="'Work Sans'" font-size="16" transform="translate(442.8357 612.5292)">w</text><text font-family="'Work Sans'" font-size="16" transform="translate(456.2956 612.5292)">e</text><text font-family="'Work Sans'" font-size="16" transform="translate(465.5857 612.5292)">r</text><text font-family="'Work Sans'" font-size="16" transform="translate(471.7854 612.5292)">s</text><text font-family="'Work Sans'" font-size="16" letter-spacing="16" transform="translate(329.3054 636.5292)"></text><text font-family="'Work Sans'" font-size="16" transform="translate(351.3654 636.5292)">Governme</text><text font-family="'Work Sans'" font-size="16" transform="translate(431.2654 636.5292)">n</text><text font-family="'Work Sans'" font-size="16" transform="translate(441.0754 636.5292)">ta</text><text font-family="'Work Sans'" font-size="16" transform="translate(456.8357 636.5292)">l</text><text font-family="'Work Sans'" font-size="16" transform="translate(461.1653 636.5292)"> but n</text><text font-family="'Work Sans'" font-size="16" transform="translate(508.6755 636.5292)">o</text><text font-family="'Work Sans'" font-size="16" transform="translate(518.2751 636.5292)">t public d</text><text font-family="'Work Sans'" font-size="16" transform="translate(594.2053 636.5292)">a</text><text font-family="'Work Sans'" font-size="16" transform="translate(602.9655 636.5292)">ta</text><text font-family="'Work Sans'" font-size="14.2979" font-weight="700" transform="translate(.9743 554.9481)">LEGEND</text></svg>